<?xml version="1.0" encoding="iso-8859-1"?>
<!-- Generator: Adobe Illustrator 19.0.0, SVG Export Plug-In . SVG Version: 6.00 Build 0)  -->
<svg version="1.1" id="Layer_1" xmlns="http://www.w3.org/2000/svg" xmlns:xlink="http://www.w3.org/1999/xlink" x="0px" y="0px"
	 viewBox="0 0 512.001 512.001" style="enable-background:new 0 0 512.001 512.001;" xml:space="preserve">
<g>
	<path style="fill:#FFC61B;" d="M254.764,494.807c-130.868,0-237.338-106.469-237.338-237.338
		c0-130.87,106.469-237.339,237.338-237.339c130.87,0,237.339,106.469,237.339,237.339c0,8.192-6.643,14.836-14.836,14.836
		c-8.192,0-14.836-6.643-14.836-14.836c0-114.509-93.159-207.668-207.668-207.668c-114.507,0-207.666,93.159-207.666,207.668
		c0,114.507,93.159,207.666,207.666,207.666c8.192,0,14.836,6.643,14.836,14.836C269.6,488.163,262.957,494.807,254.764,494.807z"/>
	<path style="fill:#FFC61B;" d="M254.764,423.142c-91.352,0-165.673-74.321-165.673-165.673S163.411,91.797,254.764,91.797
		c8.192,0,14.836,6.643,14.836,14.836s-6.643,14.836-14.836,14.836c-74.991,0-136.001,61.01-136.001,136.001
		s61.01,136.001,136.001,136.001s136.001-61.01,136.001-136.001c0-8.192,6.643-14.836,14.836-14.836
		c8.192,0,14.836,6.643,14.836,14.836C420.437,348.821,346.116,423.142,254.764,423.142z"/>
</g>
<circle style="fill:#FEE187;" cx="254.758" cy="257.474" r="79.178"/>
<g>
	<path style="fill:#FFC61B;" d="M254.764,351.475c-51.834,0-94.006-42.172-94.006-94.006c0-51.836,42.172-94.007,94.006-94.007
		s94.006,42.172,94.006,94.007S306.598,351.475,254.764,351.475z M254.764,193.133c-35.475,0-64.335,28.861-64.335,64.336
		s28.861,64.335,64.335,64.335c35.475,0,64.335-28.86,64.335-64.335S290.239,193.133,254.764,193.133z"/>
	<path style="fill:#FFC61B;" d="M254.764,66.541c-8.194,0-14.836-6.643-14.836-14.836V17.313c0-8.192,6.642-14.836,14.836-14.836
		c8.192,0,14.836,6.643,14.836,14.836v34.392C269.6,59.897,262.957,66.541,254.764,66.541z"/>
	<path style="fill:#FFC61B;" d="M254.764,512.001c-8.194,0-14.836-6.643-14.836-14.836v-34.392c0-8.192,6.642-14.836,14.836-14.836
		c8.192,0,14.836,6.643,14.836,14.836v34.392C269.6,505.359,262.957,512.001,254.764,512.001z"/>
	<path style="fill:#FFC61B;" d="M494.691,272.076h-34.392c-8.192,0-14.836-6.643-14.836-14.836c0-8.192,6.643-14.836,14.836-14.836
		h34.392c8.192,0,14.836,6.643,14.836,14.836C509.526,265.433,502.884,272.076,494.691,272.076z"/>
	<path style="fill:#FFC61B;" d="M49.228,272.076h-34.39c-8.194,0-14.836-6.643-14.836-14.836c0-8.192,6.642-14.836,14.836-14.836
		h34.39c8.194,0,14.836,6.643,14.836,14.836C64.064,265.433,57.422,272.076,49.228,272.076z"/>
	<path style="fill:#FFC61B;" d="M249.735,277.106c-3.796,0-7.594-1.449-10.49-4.345c-5.793-5.793-5.793-15.187,0-20.982
		l134.277-134.279c5.795-5.792,15.186-5.792,20.982,0c5.793,5.793,5.793,15.187,0,20.982L260.225,272.76
		C257.328,275.658,253.531,277.106,249.735,277.106z"/>
</g>
<polygon style="fill:#FEE187;" points="431.609,154.876 371.806,140.198 357.127,80.396 422.683,14.84 446.783,65.222 
	497.164,89.322 "/>
<path style="fill:#FFC61B;" d="M431.609,169.714c-1.178,0-2.365-0.141-3.537-0.427l-59.804-14.68
	c-5.365-1.317-9.554-5.507-10.872-10.872l-14.68-59.804c-1.237-5.038,0.249-10.357,3.918-14.027l65.556-65.556
	c3.405-3.403,8.24-4.954,12.996-4.132c4.744,0.813,8.802,3.878,10.879,8.22l21.84,45.66l45.66,21.84
	c4.342,2.077,7.407,6.135,8.22,10.879c0.813,4.746-0.727,9.591-4.132,12.996l-65.556,65.556
	C439.284,168.182,435.496,169.714,431.609,169.714z M384.072,127.933l42.957,10.544l44.82-44.82L440.38,78.605
	c-3.056-1.461-5.52-3.926-6.982-6.982l-15.052-31.468l-44.82,44.82L384.072,127.933z"/>
<g>
</g>
<g>
</g>
<g>
</g>
<g>
</g>
<g>
</g>
<g>
</g>
<g>
</g>
<g>
</g>
<g>
</g>
<g>
</g>
<g>
</g>
<g>
</g>
<g>
</g>
<g>
</g>
<g>
</g>
</svg>
